<svg width="1937" height="1624" viewBox="0 0 1937 1624" fill="none" xmlns="http://www.w3.org/2000/svg">
<g clip-path="url(#clip0_33_5)">
<path d="M1588.85 460.737L470.701 443.111C406.699 442.12 353.938 491.27 352.895 552.911L337.664 1449.77V1449.82C278.435 1458.71 221.527 1419.73 208.383 1359.73L201.837 1329.83L2.73805 420.113C-10.9542 357.586 28.1405 295.946 89.9774 282.439L1251.29 28.8385L1371.23 2.63359C1433.1 -10.873 1494.33 28.8646 1508.03 91.3652L1588.85 460.737Z" fill="#E0FA15"/>
<path d="M337.665 1473.11C324.598 1458.92 314.87 1441.27 310.124 1421.14L89.3522 484.986C74.6427 422.668 113.242 360.272 175.574 345.592L1457.98 43.2576C1520.31 28.5776 1582.72 67.1679 1597.41 129.46L1647.01 339.829" stroke="#0A174E" stroke-width="24" stroke-miterlimit="10" stroke-linecap="round"/>
<path d="M341.785 1220.73L1050.65 1238" stroke="#0A174E" stroke-width="24" stroke-miterlimit="10" stroke-linecap="round"/>
<path d="M1438.15 1246.5L1777.65 1257" stroke="#0A174E" stroke-width="24" stroke-miterlimit="10" stroke-linecap="round"/>
<path d="M712.729 446.944L682.527 1596.31" stroke="#0A174E" stroke-width="24" stroke-miterlimit="10" stroke-linecap="round"/>
<path d="M514.543 1374.83C514.543 1374.83 627.498 1336.09 692.151 1230.3" stroke="#0A174E" stroke-width="24" stroke-miterlimit="10" stroke-linecap="round"/>
<path d="M869.759 1374.83C869.759 1374.83 756.804 1336.09 692.15 1230.3" stroke="#0A174E" stroke-width="24" stroke-miterlimit="10" stroke-linecap="round"/>
<path d="M1082.45 1350.27L1066.09 1456.39C1064.32 1467.84 1073.94 1477.83 1085.45 1476.5L1505.05 1428.41C1516.53 1427.11 1523.62 1415.25 1519.37 1404.5L1478.35 1301.12C1475.4 1293.69 1467.79 1289.18 1459.86 1290.17L1097.62 1335.51C1089.85 1336.48 1083.65 1342.5 1082.45 1350.27Z" fill="#DA27A7"/>
<path d="M1098.96 1497.28C1098.96 1497.28 1120.97 1433.37 1120.97 1383.33C1120.97 1333.3 1100.1 1299.11 1079.81 1274.78C1059.52 1250.46 979.559 1153.69 979.559 1063.29C979.559 1027.36 995.781 1008.82 1018.39 989.137C1041 969.451 1143.4 879.807 1143.4 879.807C1143.4 879.807 1166.97 862.415 1185.13 877.877C1203.28 893.34 1214.49 926.558 1214.1 951.277C1213.71 975.996 1196.34 1038.97 1131.03 1072.97C1131.03 1072.97 1180.09 1115.47 1170.44 1167.62" stroke="#0A174E" stroke-width="24" stroke-miterlimit="10" stroke-linecap="round"/>
<path d="M693.221 1189.99C670.609 1078.99 613.153 1002.46 552.438 998.785C550.117 998.654 505.076 996.595 478.839 1028.33C452.628 1060.01 460.791 1106.42 470.206 1129.29C494.957 1189.57 584.752 1223.96 693.403 1212" stroke="#0A174E" stroke-width="24" stroke-miterlimit="10" stroke-linecap="round"/>
<path d="M693.22 1189.99C715.831 1078.99 773.287 1002.46 834.002 998.785C836.323 998.654 881.364 996.595 907.602 1028.33C933.812 1060.01 925.649 1106.42 916.234 1129.29C891.484 1189.57 801.689 1223.96 693.037 1212" stroke="#0A174E" stroke-width="24" stroke-miterlimit="10" stroke-linecap="round"/>
<path d="M1491.31 1410.94C1491.31 1410.94 1430.46 1308.39 1433.36 1264.93C1436.25 1221.46 1462.33 1191.92 1466.4 1156.56C1470.47 1121.2 1464.08 1076.59 1458.87 1063.27" stroke="#0A174E" stroke-width="24" stroke-miterlimit="10" stroke-linecap="round"/>
<path d="M1202.65 901.97C1202.65 901.97 1235.75 841.947 1283.84 844.267C1331.93 846.588 1348.18 891.201 1343.54 951.46C1338.9 1011.72 1304.7 1109.81 1245.58 1106.55C1186.45 1103.29 1176.36 1051.01 1181.13 1032.24" stroke="#0A174E" stroke-width="24" stroke-miterlimit="10" stroke-linecap="round"/>
<path d="M1007.96 998.707C1007.96 998.707 961.015 846.379 941.324 791.336C921.633 736.292 905.959 702.109 907.706 666.752C909.454 631.395 945.967 606.494 979.584 614.029C1013.2 621.565 1053.76 652.28 1080.44 699.215C1107.12 746.149 1156.12 841.008 1156.83 873.262" stroke="#0A174E" stroke-width="24" stroke-miterlimit="10" stroke-linecap="round"/>
<path d="M1026.79 771.259C1026.79 771.259 991.607 816.002 945.314 802.757" stroke="#0A174E" stroke-width="24" stroke-miterlimit="10" stroke-linecap="round"/>
<path d="M1343.69 917.198C1343.69 917.198 1356.68 902.127 1392.6 902.127C1422.14 902.127 1448.23 932.269 1446.5 975.422C1444.78 1018.58 1384.01 1121.52 1330 1121.73C1284.2 1121.88 1302.17 1073.64 1302.17 1073.64" stroke="#0A174E" stroke-width="24" stroke-miterlimit="10" stroke-linecap="round"/>
<path d="M1150.12 844.215C1150.12 844.215 1148.77 663.597 1156.8 618.775C1164.83 573.952 1189.56 534.554 1239.03 531.477C1288.51 528.4 1301.63 585.556 1307.81 627.275C1313.99 668.994 1330.21 788.337 1307.81 849.951" stroke="#0A174E" stroke-width="24" stroke-miterlimit="10" stroke-linecap="round"/>
<path d="M1240.55 763.254C1240.55 763.254 1172.29 763.227 1150.39 750.868" stroke="#0A174E" stroke-width="24" stroke-miterlimit="10" stroke-linecap="round"/>
<path d="M1910.58 577.421L1894.85 1503.77C1893.81 1565.41 1841.05 1614.56 1777.05 1613.54L451.193 1592.68C387.165 1591.67 336.126 1540.9 337.169 1479.26L337.665 1449.82V1449.77L352.896 552.911C353.939 491.27 406.7 442.12 470.701 443.111L1588.85 460.737L1672.44 462.041L1796.56 463.996C1860.58 464.987 1911.62 515.78 1910.58 577.421Z" stroke="#0A174E" stroke-width="24" stroke-miterlimit="10" stroke-linecap="round"/>
<path d="M697.628 1271.39C725.614 1271.39 748.302 1248.71 748.302 1220.73C748.302 1192.75 725.614 1170.07 697.628 1170.07C669.641 1170.07 646.953 1192.75 646.953 1220.73C646.953 1248.71 669.641 1271.39 697.628 1271.39Z" fill="#DA27A7" stroke="#0A174E" stroke-width="24"/>
<path d="M1783.62 146.93L1754.25 228.048" stroke="#0A174E" stroke-width="24" stroke-miterlimit="10" stroke-linecap="round"/>
<path d="M1903.38 172.405L1810.67 251.228" stroke="#0A174E" stroke-width="24" stroke-miterlimit="10" stroke-linecap="round"/>
<path d="M1824.57 306.845L1926.57 346.244" stroke="#0A174E" stroke-width="24" stroke-miterlimit="10" stroke-linecap="round"/>
</g>
<defs>
<clipPath id="clip0_33_5">
<rect width="1937" height="1624" fill="white"/>
</clipPath>
</defs>
</svg>
