<svg width="1910" height="1624" viewBox="0 0 1910 1624" fill="none" xmlns="http://www.w3.org/2000/svg">
<g clip-path="url(#clip0_35_31)">
<path d="M531.927 511.27C491.494 534.044 450.324 558.157 408.551 583.61C315.056 640.611 272.044 697.378 193.255 753.776C44.3861 753.776 80.3638 634.415 85.4556 612.378C42.3092 587.461 11.1218 544.292 2.07712 484.377C-12.3274 388.794 52.5598 352.39 68.4047 345.022C50.2149 311.431 36.6479 275.662 27.9047 239.292C-0.401793 121.705 41.3042 36.8399 97.8836 33.8593C154.463 30.9121 188.699 158.914 278.007 283.935C360.012 398.674 508.143 496.032 531.927 511.27Z" fill="#E0FA15"/>
<path d="M1839.02 659.433C1840.19 662.447 1914.15 857.028 1739.32 924.01C1751.32 930.407 1757.01 943.435 1750.25 966.945C1724.92 1054.76 1615.51 1150.74 1384 1130.65C1152.49 1110.55 1147.27 960.247 1197.88 870.927C1248.5 781.607 1382.5 713.152 1518 638.736C1653.47 564.286 1753.23 479.621 1784.48 437.858C1815.77 396.095 1864.88 339.529 1900.62 402.057C1921.63 438.796 1909.93 560.769 1839.02 659.399V659.433Z" fill="#E0FA15"/>
<path d="M1209.44 663.184C1173.4 690.278 1135.84 717.539 1096.72 744.767C1080.64 755.953 1064.66 766.871 1048.78 777.588C777.608 669.882 393.712 611.541 389.189 610.838C414.046 594.93 439.471 579.022 465.466 563.181C497.123 543.89 528.41 525.369 559.33 507.619C559.33 507.619 984.195 531.197 1209.44 663.184Z" fill="#DA27A7"/>
<path d="M1209.44 663.184C1173.4 690.278 1135.84 717.539 1096.72 744.767C1080.64 755.953 1064.66 766.871 1048.78 777.588C777.608 669.882 393.712 611.541 389.189 610.838C414.046 594.93 439.471 579.022 465.466 563.181C497.123 543.89 528.41 525.369 559.33 507.619C559.33 507.619 984.195 531.197 1209.44 663.184Z" stroke="#0A174E" stroke-width="24"/>
<path d="M1048.78 777.588C978.365 824.978 909.86 867.611 844.202 905.891C818.341 920.996 787.59 925.216 758.647 917.613C576.715 869.889 394.749 822.198 212.817 774.474C194.728 769.718 190.34 746.074 205.548 735.189C206.051 734.821 206.587 734.452 207.089 734.084C263.97 693.359 324.636 652.098 389.155 610.838H389.189C393.711 611.541 777.607 669.882 1048.78 777.588Z" stroke="#0A174E" stroke-width="24" stroke-linecap="round" stroke-linejoin="round"/>
<path d="M1350.94 551.291C1306.72 588.031 1259.62 625.44 1209.47 663.184H1209.44C984.195 531.197 559.33 507.619 559.33 507.619C569.212 501.959 579.061 496.366 588.842 490.841C634.367 465.187 678.988 441.14 722.503 418.668C741.563 408.822 762.902 404.401 784.341 405.741C860.183 410.429 943.528 419.505 1032.7 435.179C1149.51 455.742 1253.69 483.674 1343.84 513.346C1360.29 518.772 1364.27 540.206 1350.94 551.291Z" stroke="#0A174E" stroke-width="24" stroke-linecap="round" stroke-linejoin="round"/>
<path d="M196.37 753.776C196.37 753.776 166.221 857.933 210.875 1084.16C255.528 1310.39 315.089 1462.24 402.923 1468.2" stroke="#0A174E" stroke-width="24" stroke-linecap="round" stroke-linejoin="round"/>
<path d="M539.9 1523.26C539.9 1523.26 897.232 1621.49 953.811 1609.6C1010.39 1597.71 1491.27 1241.94 1516.59 1218.13C1541.92 1194.31 1519.37 1081.92 1519.37 1081.92" stroke="#0A174E" stroke-width="24" stroke-linecap="round" stroke-linejoin="round"/>
<path d="M809.732 919.053C809.732 919.053 934.549 1338.96 946.407 1610.5" stroke="#0A174E" stroke-width="24" stroke-linecap="round" stroke-linejoin="round"/>
<path d="M1561.75 905.557C1561.75 905.557 1710.62 846.747 1685.32 934.593C1660.03 1022.44 1550.59 1118.42 1319.08 1098.33C1087.57 1078.23 1082.35 927.895 1132.96 838.575C1183.58 749.255 1317.57 680.8 1453.08 606.384C1588.58 531.967 1688.3 447.269 1719.59 405.54C1750.88 363.81 1799.99 307.211 1835.73 369.738C1871.48 432.265 1812.59 741.854 1527.88 762.685" stroke="#0A174E" stroke-width="24" stroke-linecap="round" stroke-linejoin="round"/>
<path d="M1358.88 536.187C1358.88 536.187 1411.77 531.632 1415.29 627.047" stroke="#0A174E" stroke-width="24" stroke-linecap="round" stroke-linejoin="round"/>
<path d="M1774.09 627.047C1774.09 627.047 1850.57 824.174 1674.4 891.658" stroke="#0A174E" stroke-width="24" stroke-linecap="round" stroke-linejoin="round"/>
<path d="M1185.55 1610.6L1527.85 1338.46" stroke="#0A174E" stroke-width="24" stroke-linecap="round" stroke-linejoin="round"/>
<path d="M1456.53 1570.41L1596.49 1430.49" stroke="#0A174E" stroke-width="24" stroke-linecap="round" stroke-linejoin="round"/>
<path d="M588.841 490.84C548.408 513.614 507.238 537.728 465.465 563.181C371.97 620.182 285.878 677.685 207.089 734.084C114.298 731.907 137.278 613.986 142.37 591.949C99.2232 567.032 68.0358 523.862 58.9912 463.947C44.5867 368.365 109.474 331.96 125.319 324.592C107.129 291.001 93.5619 255.233 84.8187 218.862C56.5123 101.276 98.2182 16.4105 154.798 13.4298C211.377 10.4826 245.613 138.484 334.921 263.505C416.926 378.245 565.057 475.602 588.841 490.84Z" stroke="#0A174E" stroke-width="24" stroke-linecap="round" stroke-linejoin="round"/>
<path d="M125.319 324.592C165.853 399.779 229.3 464.182 312.611 500.184" stroke="#0A174E" stroke-width="24" stroke-linecap="round" stroke-linejoin="round"/>
<path d="M547.369 33.7922L705.182 291.303" stroke="#0A174E" stroke-width="24" stroke-linecap="round" stroke-linejoin="round"/>
<path d="M142.37 591.949C177.477 612.244 220.523 620.483 265.947 615.794" stroke="#0A174E" stroke-width="24" stroke-linecap="round" stroke-linejoin="round"/>
<path d="M809.732 108.242V256.807" stroke="#0A174E" stroke-width="24" stroke-linecap="round" stroke-linejoin="round"/>
<path d="M349.594 1029.61V1206.74L756.771 1306.44V1120.4L349.594 1029.61Z" fill="#E0FA15"/>
<path d="M1017.83 125.356L918.068 256.807" stroke="#0A174E" stroke-width="24" stroke-linecap="round" stroke-linejoin="round"/>
<path d="M396.994 1172.24C396.994 1172.24 501.477 1119.9 474.678 1093.84C447.879 1067.79 410.896 1155.87 465.633 1181.15C520.37 1206.44 561.038 1136.14 539.967 1124.22C518.896 1112.29 489.853 1195.65 555.343 1206.47C620.833 1217.29 616.746 1154.76 616.746 1154.76C616.746 1154.76 588.071 1229.91 687.462 1218.39" stroke="#0A174E" stroke-width="24" stroke-linecap="round" stroke-linejoin="round"/>
</g>
<defs>
<clipPath id="clip0_35_31">
<rect width="1910" height="1624" fill="white"/>
</clipPath>
</defs>
</svg>
