<svg width="1463" height="1624" viewBox="0 0 1463 1624" fill="none" xmlns="http://www.w3.org/2000/svg">
<g clip-path="url(#clip0_29_87)">
<path d="M833.989 655.268L818.974 99.0894L798.985 117.578L782.056 126.892L574.627 603.266L481.923 287.088C478.513 275.48 461.817 276.463 459.786 288.375L405.821 603.266L297.191 411.617L292.871 433.592L282.083 450.607L275.755 459.804L342.703 777.316C342.703 777.316 455.816 738.818 657.687 793.792C859.558 848.766 959.875 914.787 959.875 914.787L1111.47 671.019L1097.2 667.063L1079.15 661.096L1066.94 653.209L982.176 724.799L1058.67 401.904C1061.5 389.969 1046.13 382.597 1038.62 392.262L834.036 655.292L833.989 655.268Z" fill="#E0FA15"/>
<path d="M916.138 926.419C910.884 951.015 768.582 941.233 598.282 904.607C528.064 889.488 464.036 872.17 413.433 855.319C341.325 831.308 296.397 808.209 299.503 793.769C304.757 769.195 447.059 778.955 617.36 815.581C676.718 828.359 731.617 842.705 777.736 857.005C863.995 883.778 919.571 910.411 916.138 926.419Z" stroke="#0A174E" stroke-width="24" stroke-linecap="round" stroke-linejoin="round"/>
<path d="M1099.68 978.631C1099.68 1050.97 870.136 1109.62 586.979 1109.62C303.823 1109.62 74.3037 1050.97 74.3037 978.631C74.3037 921.855 215.695 873.504 413.433 855.319C464.035 872.17 528.064 889.488 598.281 904.607C768.582 941.233 910.884 951.015 916.138 926.419L943.226 884.433C1039.69 908.258 1099.68 941.654 1099.68 978.631Z" stroke="#0A174E" stroke-width="24" stroke-linecap="round" stroke-linejoin="round"/>
<path d="M833.989 985.512C833.989 1016.57 723.398 1041.75 586.98 1041.75C450.562 1041.75 339.971 1016.57 339.971 985.512C339.971 954.456 450.562 929.274 586.98 929.274C723.398 929.274 833.989 954.456 833.989 985.512Z" fill="#DA27A7"/>
<path d="M239.56 469.353C271.375 469.353 297.167 443.503 297.167 411.617C297.167 379.73 271.375 353.881 239.56 353.881C207.744 353.881 181.952 379.73 181.952 411.617C181.952 443.503 207.744 469.353 239.56 469.353Z" stroke="#0A174E" stroke-width="24" stroke-linecap="round" stroke-linejoin="round"/>
<path d="M771.01 124.833C802.825 124.833 828.617 98.9839 828.617 67.0972C828.617 35.2106 802.825 9.36133 771.01 9.36133C739.194 9.36133 713.402 35.2106 713.402 67.0972C713.402 98.9839 739.194 124.833 771.01 124.833Z" stroke="#0A174E" stroke-width="24" stroke-linecap="round" stroke-linejoin="round"/>
<path d="M1111.42 671.019C1143.24 671.019 1169.03 645.169 1169.03 613.283C1169.03 581.396 1143.24 555.547 1111.42 555.547C1079.61 555.547 1053.82 581.396 1053.82 613.283C1053.82 645.169 1079.61 671.019 1111.42 671.019Z" stroke="#0A174E" stroke-width="24" stroke-linecap="round" stroke-linejoin="round"/>
<path d="M668.219 761.964C706.766 761.964 738.015 730.645 738.015 692.012C738.015 653.378 706.766 622.059 668.219 622.059C629.671 622.059 598.422 653.378 598.422 692.012C598.422 730.645 629.671 761.964 668.219 761.964Z" fill="#DA27A7"/>
<path d="M1085.06 664.606L943.225 884.433L916.138 926.419" stroke="#0A174E" stroke-width="24" stroke-linecap="round" stroke-linejoin="round"/>
<path d="M1059.16 637.599L952.029 724.776L1032.82 357.087L794.805 654.566L781.962 123.757" stroke="#0A174E" stroke-width="24" stroke-linecap="round" stroke-linejoin="round"/>
<path d="M271.154 459.874L369.463 618.853L419.808 241.803L537.592 616.255L747.285 119.684" stroke="#0A174E" stroke-width="24" stroke-linecap="round" stroke-linejoin="round"/>
<path d="M299.479 793.769L244.768 469.095" stroke="#0A174E" stroke-width="24" stroke-linecap="round" stroke-linejoin="round"/>
<path d="M475.29 418.193L551.252 209.038L624.014 411.617" stroke="#0A174E" stroke-width="24" stroke-linecap="round" stroke-linejoin="round"/>
<path d="M789.481 434.763L942.175 271.806L926.483 489.994" stroke="#0A174E" stroke-width="24" stroke-linecap="round" stroke-linejoin="round"/>
<path d="M227.465 1320.18L416.703 1500.45C425.366 1508.69 426.744 1522.03 419.949 1531.88L363.602 1613.54C354.892 1626.15 336.842 1627.63 326.217 1616.58L127.591 1410.21C117.854 1400.1 118.695 1383.84 129.413 1374.76L195.147 1319.2C204.604 1311.22 218.521 1311.61 227.488 1320.16L227.465 1320.18Z" fill="#E0FA15"/>
<path d="M305.737 1554.12C305.737 1554.12 318.721 1523.18 348.283 1498.98C377.846 1474.78 427.42 1465.44 466.604 1438.9C505.787 1412.36 535.793 1376.84 568.999 1342.51C602.204 1308.17 684.541 1247.68 734.886 1212.31C785.231 1176.95 856.079 1134.54 853.86 1090.48" stroke="#0A174E" stroke-width="24" stroke-linecap="round" stroke-linejoin="round"/>
<path d="M177.726 1436.33C177.726 1436.33 207.125 1424.88 225.806 1394.2C244.487 1363.52 242.408 1318.19 248.643 1288.02C254.878 1257.86 261.44 1236.37 260.762 1204.8C260.085 1173.23 250.044 1160.08 247.265 1138.24C244.487 1116.41 247.055 1093.47 254.761 1078.42" stroke="#0A174E" stroke-width="24" stroke-linecap="round" stroke-linejoin="round"/>
<path d="M347.209 1094.45C347.209 1094.45 356.316 1125.49 358.137 1151.23C359.959 1176.97 364.886 1227.95 426.113 1220.67C487.34 1213.39 607.482 1160.99 673.169 1107.79" stroke="#0A174E" stroke-width="24" stroke-linecap="round" stroke-linejoin="round"/>
<path d="M520.895 1108.57C520.895 1108.57 462.307 1187.62 458.384 1214.21" stroke="#0A174E" stroke-width="24" stroke-linecap="round" stroke-linejoin="round"/>
<path d="M607.015 1109.55C607.015 1109.55 571.077 1146.88 564.726 1173.67" stroke="#0A174E" stroke-width="24" stroke-linecap="round" stroke-linejoin="round"/>
<path d="M222.094 284.631V130.169L130.253 315.312L9.34082 245.617L68.4894 350.16L9.34082 364.717L69.0265 396.451" stroke="#0A174E" stroke-width="24" stroke-linecap="round" stroke-linejoin="round"/>
<path d="M1238.48 504.107C1238.48 504.107 1339.5 395.937 1453.66 354.326" stroke="#0A174E" stroke-width="24" stroke-linecap="round" stroke-linejoin="round"/>
<path d="M1274.46 578.997C1274.46 578.997 1340.2 571.368 1372.7 590.792" stroke="#0A174E" stroke-width="24" stroke-linecap="round" stroke-linejoin="round"/>
<path d="M1286.21 644.175C1286.21 644.175 1354.7 697.558 1349.86 741.954" stroke="#0A174E" stroke-width="24" stroke-linecap="round" stroke-linejoin="round"/>
<path d="M551.508 257.974C577.546 257.974 598.654 236.819 598.654 210.723C598.654 184.627 577.546 163.472 551.508 163.472C525.47 163.472 504.362 184.627 504.362 210.723C504.362 236.819 525.47 257.974 551.508 257.974Z" fill="#DA27A7"/>
<path d="M947.079 318.823C972.988 318.823 993.991 297.773 993.991 271.806C993.991 245.839 972.988 224.789 947.079 224.789C921.169 224.789 900.166 245.839 900.166 271.806C900.166 297.773 921.169 318.823 947.079 318.823Z" fill="#DA27A7"/>
</g>
<defs>
<clipPath id="clip0_29_87">
<rect width="1463" height="1624" fill="white"/>
</clipPath>
</defs>
</svg>
