<svg width="1737" height="1624" viewBox="0 0 1737 1624" fill="none" xmlns="http://www.w3.org/2000/svg">
<g clip-path="url(#clip0_26_5)">
<path d="M204.5 912.29L357.5 1294.79L368 1290.29L380.5 1220.29L410 1116.29L422.5 1084.29L444.5 1048.29L471.5 1021.29L495.5 1009.29H517.5L544.5 1021.29L589.5 1048.29L621 1056.29L641 1048.29L649 1021.29L654.5 965.79L662.5 917.79L670 858.29L698 820.29L737.5 790.29H789.5L833.5 804.79L894.5 843.79L901 838.79L855.5 671.79L789.5 469.29L773 459.29C745.833 469.457 690.7 490.19 687.5 491.79C683.5 493.79 580.5 528.29 577.5 530.79C575.1 532.79 564.5 552.623 559.5 562.29L521 607.79L483.5 638.29L384.5 627.79V607.79L303 644.29L127 709.29L204.5 912.29Z" fill="#E0FA15"/>
<path d="M1091.5 574.79L1102.5 389.29H1255L1276 415.79L1295.5 434.79L1354.5 415.79V389.29L1568 410.29V434.79L1558.5 530.79L1543.5 655.29L1530.5 749.79L1497 917.79L1486 945.79L1354.5 935.29L1063 917.79H1011L1041 831.29L1091.5 574.79Z" fill="#E0FA15"/>
<path d="M474.788 172.382L384.271 629.545L489.321 636.26L546.321 177.966L474.788 172.382Z" stroke="#0A174E" stroke-width="24" stroke-linecap="round" stroke-linejoin="round"/>
<path d="M16.6201 131.01C16.6201 131.01 221.315 288.503 443.409 330.856" stroke="#0A174E" stroke-width="24" stroke-linecap="round" stroke-linejoin="round"/>
<path d="M411.602 491.569L33.0386 639.303C14.4323 646.572 5.25485 667.547 12.5717 686.134C46.7671 773.105 140.804 1013.27 219.831 1224.78C257.295 1325.09 321.411 1496.51 357.342 1585.72C368.656 1613.81 403.933 1622.94 427.467 1603.88C484.644 1557.55 592.762 1480.26 740.959 1419.65C908.189 1351.24 1042.71 1317.19 1101.85 1304.01C1119.4 1300.09 1129.98 1282.15 1124.9 1264.92L1072.03 1085.65" stroke="#0A174E" stroke-width="24" stroke-linecap="round" stroke-linejoin="round"/>
<path d="M546.321 177.966L583.006 409.351C583.006 409.351 540.538 436.187 541.092 452.937C541.645 469.688 583.006 498.762 583.006 512.192C583.006 525.623 521.354 626.2 489.321 636.26" stroke="#0A174E" stroke-width="24" stroke-linecap="round" stroke-linejoin="round"/>
<path d="M389.878 601.351C389.878 601.351 152.421 701.853 124.109 704.091L376.627 1343.8C384.648 1364.12 408.736 1372.72 427.795 1362.06C481.275 1332.1 589.041 1274.43 712.672 1222.75C840.126 1169.5 923.326 1135.45 959.759 1120.64C972.532 1115.43 980.88 1103.01 980.88 1089.22V1083.82" stroke="#0A174E" stroke-width="24" stroke-linecap="round" stroke-linejoin="round"/>
<path d="M415.021 1501.82C415.021 1501.82 467.924 1457.48 450.399 1404.21C432.874 1350.94 413.639 1494.37 488.391 1460.09C533.096 1439.6 515.571 1404.94 515.571 1404.94C515.571 1404.94 555.047 1453.76 586.35 1382.58" stroke="#0A174E" stroke-width="24" stroke-linecap="round" stroke-linejoin="round"/>
<path d="M1308.45 122.458L1283.13 433.219C1283.13 433.219 1333.04 432.465 1353.16 413.853C1353.16 407.893 1369.55 128.444 1369.55 128.444L1308.45 122.483V122.458Z" stroke="#0A174E" stroke-width="24" stroke-linecap="round" stroke-linejoin="round"/>
<path d="M548.434 191.346H630.025C638.523 191.346 645.312 198.388 645.01 206.889L637.744 407.113" stroke="#0A174E" stroke-width="24" stroke-linecap="round" stroke-linejoin="round"/>
<path d="M542.55 446.75C542.55 446.75 731.404 383.974 811.034 347.959C828.232 340.187 848.347 349.166 853.979 367.174L980.578 773.432" stroke="#0A174E" stroke-width="24" stroke-linecap="round" stroke-linejoin="round"/>
<path d="M1308.45 122.458C1308.45 122.458 1235.06 244.866 1235.06 256.586C1235.06 268.307 1255.17 273.915 1255.17 283.422C1255.17 292.929 1222.21 300.198 1222.21 313.05C1222.21 325.902 1283.11 433.219 1283.11 433.219" stroke="#0A174E" stroke-width="24" stroke-linecap="round" stroke-linejoin="round"/>
<path d="M575.891 364.382C575.891 364.382 661.455 380.353 738.268 377.536" stroke="#0A174E" stroke-width="24" stroke-linecap="round" stroke-linejoin="round"/>
<path d="M1247.53 291.898H1042.48C1042.48 291.898 995.186 777.204 924.658 1059.75C921.741 1071.42 930.416 1082.76 942.46 1083.01L1507.69 1094.45C1519.03 1094.68 1529.14 1087.36 1532.43 1076.47C1556.64 996.241 1619.68 893.45 1651.16 307.894L1359.54 300.198" stroke="#0A174E" stroke-width="24" stroke-linecap="round" stroke-linejoin="round"/>
<path d="M574.005 533.721C574.005 533.721 763.664 450.02 779.856 452.258C796.049 454.497 942.058 984.018 942.058 984.018" stroke="#0A174E" stroke-width="24" stroke-linecap="round" stroke-linejoin="round"/>
<path d="M364.005 1311.91C364.005 1311.91 397.496 1080.45 461.562 1023.08C525.628 965.708 589.694 1077.23 635.883 1052.75C682.072 1028.28 619.49 865.734 713.351 805.046C807.212 744.357 908.541 864.125 908.541 864.125" stroke="#0A174E" stroke-width="24" stroke-linecap="round" stroke-linejoin="round"/>
<path d="M519.694 1052.75C519.694 1052.75 465.309 1090.13 457.112 1184.77" stroke="#0A174E" stroke-width="24" stroke-linecap="round" stroke-linejoin="round"/>
<path d="M444.439 1248.88C444.439 1248.88 439.587 1234.62 450.021 1213.01" stroke="#0A174E" stroke-width="24" stroke-linecap="round" stroke-linejoin="round"/>
<path d="M857.299 377.863C857.299 377.863 973.463 388.2 1036.3 351.329" stroke="#0A174E" stroke-width="24" stroke-linecap="round" stroke-linejoin="round"/>
<path d="M1708.34 10.0603C1708.34 10.0603 1534.44 188.881 1362.69 245.898" stroke="#0A174E" stroke-width="24" stroke-linecap="round" stroke-linejoin="round"/>
<path d="M1196.13 291.898L1186.45 137.674L1236.74 127.966L1253.64 217.452" stroke="#0A174E" stroke-width="24" stroke-linecap="round" stroke-linejoin="round"/>
<path d="M1260.5 392.425L1101.54 383.22C1101.54 383.22 1097.82 641.793 1009.92 919.028L1492.68 941.387C1492.68 941.387 1564.19 655.324 1568.66 407.113L1354.19 394.412" stroke="#0A174E" stroke-width="24" stroke-linecap="round" stroke-linejoin="round"/>
<path d="M1331.36 978.837C1331.36 978.837 1322.78 1025.42 1352.58 1023.55C1382.37 1021.69 1377.55 1003.11 1396.91 1001.22C1416.27 999.334 1412.92 1020.94 1442.34 1019.83C1471.76 1018.73 1480.71 997.096 1480.71 997.096" stroke="#0A174E" stroke-width="24" stroke-linecap="round" stroke-linejoin="round"/>
<path d="M1628.61 253.745L1642.03 191.522" stroke="#0A174E" stroke-width="24" stroke-linecap="round" stroke-linejoin="round"/>
<path d="M1660.29 282.441L1726.94 249.268" stroke="#0A174E" stroke-width="24" stroke-linecap="round" stroke-linejoin="round"/>
<path d="M1236.74 601.351C1236.74 601.351 1134.03 584.802 1126.16 669.182C1118.29 753.563 1216.07 697.678 1216.07 697.678C1216.07 697.678 1159.65 807.787 1254.07 812.264C1348.48 816.741 1332.29 715.585 1332.29 715.585C1332.29 715.585 1354.64 773.155 1414.99 765.886C1475.33 758.618 1509.98 621.119 1390.95 630.073C1390.95 630.073 1436.76 608.267 1437.89 563.575C1439.02 518.882 1342.35 473.435 1316.65 559.299C1316.65 559.299 1307.14 495.945 1257.99 497.605C1208.83 499.265 1180.32 562.016 1236.77 601.351H1236.74Z" fill="#DA27A7" stroke="#0A174E" stroke-width="24" stroke-linecap="round" stroke-linejoin="round"/>
<path d="M1349.23 871.896C1349.23 871.896 1377.92 798.481 1332.29 715.585" stroke="#0A174E" stroke-width="24" stroke-linecap="round" stroke-linejoin="round"/>
<path d="M364.005 924.335C417.079 924.335 460.104 881.298 460.104 828.21C460.104 775.121 417.079 732.084 364.005 732.084C310.931 732.084 267.906 775.121 267.906 828.21C267.906 881.298 310.931 924.335 364.005 924.335Z" fill="#DA27A7" stroke="#0A174E" stroke-width="24" stroke-linecap="round" stroke-linejoin="round"/>
<path d="M1302.79 681.129C1324.43 681.129 1341.97 663.585 1341.97 641.944C1341.97 620.303 1324.43 602.76 1302.79 602.76C1281.16 602.76 1263.62 620.303 1263.62 641.944C1263.62 663.585 1281.16 681.129 1302.79 681.129Z" fill="#0A174E"/>
</g>
<defs>
<clipPath id="clip0_26_5">
<rect width="1737" height="1624" fill="white"/>
</clipPath>
</defs>
</svg>
