<svg width="1622" height="1624" viewBox="0 0 1622 1624" fill="none" xmlns="http://www.w3.org/2000/svg">
<g clip-path="url(#clip0_28_35)">
<path d="M403.921 371.143C403.608 652.189 403.437 792.711 370.151 897.612C292.609 1141.84 69.1593 1296.37 116.893 1361.67C121.053 1367.36 132.709 1381.11 151.261 1387.38C220.282 1410.78 267.788 1347.51 315.293 1412.07C349.633 1458.74 534.896 1643.34 672.055 1622.35C685.107 1620.36 719.048 1615.15 729.478 1592.4C741.647 1565.86 712.323 1535.99 728.224 1504.67C728.224 1504.67 735.748 1489.8 751.877 1481.46C787.271 1463.12 830.474 1498.6 920.327 1544.73C1040.56 1606.46 1075.33 1600.51 1093.65 1593.93C1096.01 1593.08 1143.78 1575.34 1147.45 1543.05C1153.04 1494.1 1052.21 1458.54 1062.05 1407.62C1064.27 1396.12 1071.16 1388.66 1073.16 1386.55C1126.36 1330.03 1229.36 1422.83 1403.3 1416.08C1577.25 1409.33 1558.67 1310.61 1509.69 1304.72C1460.7 1298.82 1397.38 1259.16 1468.31 1208.53C1539.24 1157.9 1618.18 1111.51 1622 1033.04C1625.79 954.562 1456.08 896.359 1386.41 860.937C1292.85 813.356 1138.25 714.975 1036.83 573.655C891.259 370.83 955.635 199.041 792.116 88.5595C722.781 41.7186 663.421 40.3233 647.148 40.4372C540.539 41.1775 471.517 118.657 464.764 126.488C401.869 199.383 404.064 291.442 403.978 371.171L403.921 371.143Z" fill="#E0FA15"/>
<path d="M1084.16 441.275C1084.16 441.275 1190.54 409.64 1207.02 305.849C1223.49 202.059 1128.48 243.831 1133.55 296.994" stroke="#0A174E" stroke-width="24" stroke-linecap="round" stroke-linejoin="round"/>
<path d="M1208.96 547.576C1208.96 547.576 1322.29 477.984 1331.15 557.713C1340.02 637.443 1270.06 604.526 1270.06 604.526" stroke="#0A174E" stroke-width="24" stroke-linecap="round" stroke-linejoin="round"/>
<path d="M1131.03 507.079C1131.03 507.079 1142.43 461.519 1194.35 461.519" stroke="#0A174E" stroke-width="24" stroke-linecap="round" stroke-linejoin="round"/>
<path d="M948.608 539.141C948.608 539.141 889.134 438.739 820.739 453.945C752.345 469.15 718.148 521.031 724.474 603.266C730.801 685.501 761.208 770.327 821.993 763.978C882.779 757.628 894.178 705.291 880.242 611.239" stroke="#0A174E" stroke-width="24" stroke-linecap="round" stroke-linejoin="round"/>
<path d="M953.725 803.196C953.725 803.196 892.569 784.175 866.151 743.713" stroke="#0A174E" stroke-width="24" stroke-linecap="round" stroke-linejoin="round"/>
<path d="M1129.76 1075.29C1129.76 1075.29 1252.5 1221.68 1353.89 1233.93" stroke="#0A174E" stroke-width="24" stroke-linecap="round" stroke-linejoin="round"/>
<path d="M882.797 1233.92C882.797 1233.92 915.455 1323.71 977.666 1378.58" stroke="#0A174E" stroke-width="24" stroke-linecap="round" stroke-linejoin="round"/>
<path d="M599.081 1198.05C599.081 1198.05 597.4 1435.56 643.822 1475.62" stroke="#0A174E" stroke-width="24" stroke-linecap="round" stroke-linejoin="round"/>
<path d="M338.177 1137.31C338.177 1137.31 276.28 1300.33 210.337 1362.46" stroke="#0A174E" stroke-width="24" stroke-linecap="round" stroke-linejoin="round"/>
<path d="M1088.04 1347.97C1087.35 1366.59 1082.88 1464.09 1061.42 1498.68C1048.26 1457.25 968.89 1424.05 977.639 1378.58C979.861 1367.07 986.786 1359.61 988.753 1357.51C1011.86 1332.96 1044.38 1336.58 1088.04 1347.97Z" fill="#0A174E" stroke="#0A174E" stroke-width="24" stroke-linecap="round" stroke-linejoin="round"/>
<path d="M1445.15 1284.33C1439.65 1279.69 1432.83 1276.58 1425.31 1275.67C1376.32 1269.78 1313 1230.11 1383.93 1179.48C1383.93 1179.48 1465.44 1241.93 1445.15 1284.33Z" fill="#0A174E" stroke="#0A174E" stroke-width="24" stroke-linecap="round" stroke-linejoin="round"/>
<path d="M252.89 642.079C252.89 642.079 214.048 594.839 149.045 597.374C84.0419 599.908 11.4014 671.607 11.4014 752.618C11.4014 833.629 52.7799 886.762 101.739 886.762C150.698 886.762 186.177 822.637 173.524 719.701" stroke="#0A174E" stroke-width="24" stroke-linecap="round" stroke-linejoin="round"/>
<path d="M274.261 901.682C274.261 901.682 237.072 827.476 171.1 810.278" stroke="#0A174E" stroke-width="24" stroke-linecap="round" stroke-linejoin="round"/>
<path d="M548.493 843.184C583.539 837.204 600.519 765.464 586.418 682.948C572.316 600.432 532.474 538.387 497.427 544.366C462.381 550.346 445.401 622.086 459.502 704.602C473.604 787.118 513.446 849.163 548.493 843.184Z" fill="#0A174E"/>
<path d="M1537.58 1003.99C1533.79 1082.47 1454.85 1128.88 1383.92 1179.48C1312.99 1230.11 1376.31 1269.78 1425.3 1275.67C1432.82 1276.58 1439.63 1279.69 1445.13 1284.33C1475.43 1309.75 1466.11 1381.31 1318.89 1387.04C1220.52 1390.85 1144.85 1362.83 1088.03 1347.97C1044.37 1336.58 1011.86 1332.96 988.744 1357.51C986.777 1359.61 979.853 1367.07 977.63 1378.58C968.881 1424.05 1048.25 1457.25 1061.41 1498.68C1061.53 1498.97 1061.61 1499.28 1061.7 1499.57C1063.09 1504.29 1063.64 1509.08 1063.07 1514.03C1059.36 1546.32 1011.63 1564.06 1009.26 1564.92C990.91 1571.47 956.143 1577.45 835.911 1515.71C746.058 1469.58 702.884 1434.1 667.461 1452.44C651.36 1460.78 643.837 1475.62 643.837 1475.62C627.935 1506.97 657.231 1536.81 645.091 1563.38C634.661 1586.13 600.72 1591.34 587.668 1593.33C450.509 1614.32 265.274 1429.72 230.934 1383.05C183.429 1318.5 135.923 1381.77 66.902 1358.36C48.3501 1352.07 36.6945 1338.31 32.5339 1332.65C-15.1712 1267.36 208.279 1112.82 285.821 868.595C319.106 763.695 319.277 623.172 319.591 342.126C319.676 262.397 317.482 170.338 380.376 97.4425C387.13 89.6119 456.151 12.1321 562.761 11.3918C579.033 11.2779 638.365 12.6731 707.729 59.5141C871.248 169.996 806.872 341.784 952.438 544.61C1053.86 685.93 1208.46 784.31 1302.02 831.891C1371.67 867.314 1541.4 925.545 1537.58 1003.99Z" stroke="#0A174E" stroke-width="24" stroke-linecap="round" stroke-linejoin="round"/>
<path d="M270.185 352.689C270.185 352.689 249.924 313.024 205.182 313.024C160.441 313.024 158.931 362.798 171.099 396.54C183.268 430.283 228.835 502.837 298.911 536.608C298.911 536.608 389.249 490.194 394.321 396.54C395.974 366.215 390.93 296.993 336.072 296.993C281.214 296.993 270.214 348.447 270.214 348.447" fill="#DA27A7"/>
<path d="M565.771 296.225C565.771 296.225 545.51 256.56 500.768 256.56C456.027 256.56 454.517 306.334 466.685 340.076C478.854 373.819 524.421 446.373 594.497 480.144C594.497 480.144 684.834 433.73 689.907 340.076C691.56 309.751 686.516 240.529 631.658 240.529C576.8 240.529 565.8 291.983 565.8 291.983" fill="#DA27A7"/>
</g>
<defs>
<clipPath id="clip0_28_35">
<rect width="1622" height="1624" fill="white"/>
</clipPath>
</defs>
</svg>
