<svg width="1663" height="1718" viewBox="0 0 1663 1718" fill="none" xmlns="http://www.w3.org/2000/svg">
<path d="M284.131 1420.36C284.131 1420.36 344.133 1473.65 473.783 1483.47C473.783 1483.47 518.284 1624.25 593.112 1674.57C593.112 1674.57 380.884 1657.15 284.109 1420.36H284.131Z" fill="#E0FA15"/>
<path d="M104.973 379.737C104.973 379.737 118.645 513.833 148.254 557.08C148.254 557.08 301.743 409.091 335.903 392.542C335.903 392.542 243.004 264.151 233.337 226.718C233.337 226.718 138.501 318.525 104.973 379.737Z" fill="#E0FA15"/>
<path d="M614.578 200.587L808.105 117.36C808.105 117.36 940.998 209.624 971.957 248.973C971.957 248.973 783.59 255.419 738.436 318.003C738.436 318.003 666.177 209.602 614.578 200.565V200.587Z" fill="#DA27A7"/>
<path d="M804.077 1321.48C804.077 1321.48 798.199 1440.94 797.023 1479.24C797.023 1479.24 966.144 1483.58 1062.92 1470.51C1062.92 1470.51 1103.07 1357.78 1110.34 1296.33C1110.34 1296.33 886.33 1335.5 804.077 1321.48Z" fill="#DA27A7"/>
<path d="M1239.83 1422.95C1239.83 1422.95 1135.33 1459.54 1063.24 1479.96C1063.24 1479.96 1008.58 1599.1 957.783 1672.66C957.783 1672.66 1128.08 1670.24 1239.85 1422.95H1239.83Z" fill="#E0FA15"/>
<path d="M724.459 688.258L723.806 687.038C714.401 669.226 688.819 669.422 679.697 687.408L650.61 744.788C428.149 906.343 212.241 986.457 159.903 926.791C159.903 926.769 159.837 926.725 159.837 926.704C159.075 925.811 158.313 924.896 157.617 923.938C157.551 923.851 157.486 923.742 157.421 923.655C109.197 857.239 256.046 666.155 485.822 496.434C715.816 326.539 941.87 242.375 990.834 308.378C990.899 308.465 990.964 308.552 991.03 308.661C991.574 309.445 992.118 310.25 992.662 311.056C1031.92 373.052 915.657 533.78 724.459 688.258Z" fill="#0A174E" stroke="#0A174E" stroke-width="24" stroke-linecap="round" stroke-linejoin="round"/>
<path d="M724.459 688.258L723.806 687.038C714.401 669.226 688.819 669.422 679.697 687.409L650.61 744.788C428.149 906.343 212.241 986.457 159.902 926.791C159.902 926.769 159.837 926.725 159.837 926.704C159.01 925.702 158.226 924.679 157.42 923.655C154.677 920.171 151.956 916.621 149.3 913.007C-7.49858 700.648 52.0029 390.647 282.193 220.621C512.383 50.5949 826.11 84.9137 982.908 297.294C985.608 300.952 988.264 304.654 990.833 308.378C990.899 308.465 990.964 308.552 991.029 308.661C991.573 309.445 992.118 310.25 992.662 311.056C1031.92 373.052 915.656 533.78 724.459 688.258Z" stroke="#0A174E" stroke-width="24" stroke-linecap="round" stroke-linejoin="round"/>
<path d="M933.792 1048.71C919.575 1064.26 913.915 1085.8 918.704 1106.33L957.61 1273.79L906.164 1281.48C906.164 1281.48 906.142 1281.48 906.099 1281.45C905.99 1281.39 905.642 1281.24 905.119 1280.98C892.187 1274.94 762.124 1214.54 732.319 1214.54C700.924 1214.54 616.233 1278.49 616.233 1278.49L580.397 1277.3L527.035 1275.51L530.628 1123.27C531.063 1105.18 523.791 1087.74 510.62 1075.3L480.662 1047.02L407.183 977.637C389.592 961.022 397.234 931.538 420.682 925.571L551.376 892.298C569.25 887.747 584.294 875.705 592.611 859.264L650.61 744.788L679.697 687.409C688.819 669.422 714.401 669.226 723.806 687.038L724.459 688.258L733.56 705.526L793.649 819.479C802.641 836.53 818.839 848.615 837.736 852.361L857.178 856.215L1019.46 888.443C1027.08 889.946 1033.18 894.083 1037.27 899.549C1045.39 910.306 1045.87 926.203 1035.53 937.505L953.735 1026.92L933.792 1048.71Z" fill="#E0FA15"/>
<path d="M136.672 379.737C136.672 379.737 150.279 586.695 258.092 699.864" stroke="#0A174E" stroke-width="24" stroke-linecap="round" stroke-linejoin="round"/>
<path d="M282.193 220.621C282.193 220.621 367.777 408.22 477.135 502.88" stroke="#0A174E" stroke-width="24" stroke-linecap="round" stroke-linejoin="round"/>
<path d="M447.939 136.457C447.939 136.457 597.684 179.857 714.031 354.499" stroke="#0A174E" stroke-width="24" stroke-linecap="round" stroke-linejoin="round"/>
<path d="M71.0742 736.796C71.0742 736.796 218.946 360.836 805.274 154.662" stroke="#0A174E" stroke-width="24" stroke-linecap="round" stroke-linejoin="round"/>
<path d="M1308.91 1164.63C1309.02 1165.85 1309.11 1167.09 1309.11 1168.33V1168.68" stroke="#0A174E" stroke-width="24" stroke-linecap="round" stroke-linejoin="round"/>
<path d="M1309.11 1168.68V1168.83C1309.11 1254.17 1069.04 1326.05 772.05 1329.51C474.565 1333 232.553 1266.52 231.355 1181V1180.65C231.377 1179.65 231.399 1178.65 231.443 1177.63C234.665 1123.84 333.181 1075.67 480.661 1047.02L510.618 1075.3C523.79 1087.74 531.062 1105.18 530.626 1123.27L527.034 1275.51L580.396 1277.3V1277.6L696.503 1281.48C696.503 1281.48 750.039 1239.54 781.434 1239.54C810.673 1239.54 893.601 1275.9 904.878 1280.89C904.965 1280.93 905.052 1280.95 905.118 1280.98C905.64 1281.24 905.989 1281.39 906.098 1281.45C906.141 1281.48 906.163 1281.48 906.163 1281.48L957.609 1273.79L1005.51 1266.65L964.859 1091.79L1017.5 1034.25C1186.49 1057.6 1303.36 1106.44 1308.91 1164.52C1308.91 1164.56 1308.94 1164.61 1308.91 1164.63C1309 1165.98 1309.04 1167.33 1309.11 1168.68Z" fill="#0A174E" stroke="#0A174E" stroke-width="24" stroke-linecap="round" stroke-linejoin="round"/>
<path d="M1309.48 1182.61C1312.7 1457.27 1073.93 1682.76 776.209 1686.25C478.462 1689.73 234.513 1469.88 231.312 1195.18C231.247 1190.45 231.247 1185.71 231.356 1181C232.553 1266.52 474.565 1333 772.051 1329.51C1069.04 1326.05 1309.11 1254.17 1309.11 1168.83C1309.31 1173.4 1309.44 1177.98 1309.48 1182.61Z" stroke="#0A174E" stroke-width="24" stroke-linecap="round" stroke-linejoin="round"/>
<path d="M995.797 1640.45C995.797 1640.45 1110.16 1457.47 1088 1296.33" stroke="#0A174E" stroke-width="24" stroke-linecap="round" stroke-linejoin="round"/>
<path d="M776.188 1686.25C776.188 1686.25 818.032 1475.83 783.285 1329.34" stroke="#0A174E" stroke-width="24" stroke-linecap="round" stroke-linejoin="round"/>
<path d="M585.1 1656.46C585.1 1656.46 485.082 1528.72 493.094 1310.48" stroke="#0A174E" stroke-width="24" stroke-linecap="round" stroke-linejoin="round"/>
<path d="M1268.35 1378.97C1268.35 1378.97 914.873 1606.37 294.516 1423.69" stroke="#0A174E" stroke-width="24" stroke-linecap="round" stroke-linejoin="round"/>
<path d="M1089.33 955.753L1017.5 1034.25L964.859 1091.79L1005.51 1266.65L957.61 1273.79L906.164 1281.48C906.164 1281.48 906.142 1281.48 906.098 1281.45C905.989 1281.39 905.641 1281.24 905.119 1280.98C905.053 1280.95 904.966 1280.93 904.879 1280.89C893.601 1275.9 810.674 1239.54 781.435 1239.54C750.04 1239.54 696.504 1281.48 696.504 1281.48L580.397 1277.6V1277.3L584.25 1142.59C584.795 1123.82 577.283 1105.7 563.633 1092.83L460.98 995.886C443.389 979.271 451.03 949.786 474.478 943.82L604.324 910.764C622.742 906.082 638.222 893.67 646.8 876.728L733.494 705.657C733.494 705.657 733.537 705.57 733.559 705.526C742.725 687.692 768.219 687.518 777.603 705.287L857.178 856.215L861.641 864.686L1037.27 899.549L1073.24 906.692C1095.88 911.178 1104.92 938.724 1089.33 955.753Z" stroke="#0A174E" stroke-width="24" stroke-linecap="round" stroke-linejoin="round"/>
<path d="M766.673 903.469L800.767 966.161L871.96 970.734C881.3 971.344 885.698 982.559 879.254 989.353L830.181 1041.16L847.837 1110.3C850.145 1119.35 840.849 1127.02 832.401 1122.99L767.98 1092.31L707.694 1130.46C699.791 1135.47 689.646 1128.98 690.843 1119.7L700.096 1048.95L645.188 1003.4C637.982 997.432 641.008 985.76 650.218 984.061L720.365 971.018L746.709 904.71C750.17 896.021 762.188 895.303 766.651 903.512L766.673 903.469Z" fill="#DA27A7" stroke="#0A174E" stroke-width="24" stroke-linecap="round" stroke-linejoin="round"/>
<path d="M191.884 1301.31L118.361 1372.93" stroke="#0A174E" stroke-width="24" stroke-linecap="round" stroke-linejoin="round"/>
<path d="M155.112 1212.29C155.112 1212.29 99.6386 1227.78 70.6172 1222.62" stroke="#0A174E" stroke-width="24" stroke-linecap="round" stroke-linejoin="round"/>
<path d="M37.7207 1068.4L162.21 1114.22" stroke="#0A174E" stroke-width="24" stroke-linecap="round" stroke-linejoin="round"/>
<path d="M1288.21 968.404L1554.63 938.724C1554.63 938.724 1396.46 847.744 1309.11 835.485C1309.11 835.485 1450.78 763.21 1484.96 752.889C1484.96 752.889 1389.14 724.667 1267.61 765.932C1252.29 771.137 1237.33 757.287 1241.49 741.652C1255.86 687.561 1277.85 586.303 1269.84 497.392C1269.84 497.392 1177.92 596.385 1177.92 692.047" stroke="#0A174E" stroke-width="24" stroke-linecap="round" stroke-linejoin="round"/>
<path d="M1409.15 593.859C1409.15 593.859 1464.62 537.721 1487.85 522.239" stroke="#0A174E" stroke-width="24" stroke-linecap="round" stroke-linejoin="round"/>
<path d="M1527.22 835.158L1612.37 820.329" stroke="#0A174E" stroke-width="24" stroke-linecap="round" stroke-linejoin="round"/>
<path d="M200.854 293.853C200.854 293.853 139.501 221.231 200.854 158.32C262.206 95.4096 357.652 173.541 357.652 173.541" fill="#0A174E"/>
<path d="M200.854 293.853C200.854 293.853 139.501 221.231 200.854 158.32C262.206 95.4096 357.652 173.541 357.652 173.541" stroke="#0A174E" stroke-width="24" stroke-linecap="round" stroke-linejoin="round"/>
<path d="M35.7832 41.7104C35.7832 41.7104 41.5962 77.0309 74.4929 110.435C107.39 143.839 135.453 153.987 163.038 140.921C190.622 127.856 171.724 95.4315 148.277 99.7867C124.829 104.142 93.8042 168.816 187.204 175.436" stroke="#0A174E" stroke-width="24" stroke-linecap="round" stroke-linejoin="round"/>
</svg>
