<svg width="1614" height="1662" viewBox="0 0 1614 1662" fill="none" xmlns="http://www.w3.org/2000/svg">
<path d="M615.23 774.89L1425.13 611.219C1469.48 602.251 1510.57 636.985 1509.2 682.229L1495.12 1144.65C1494.21 1174.57 1472.83 1199.93 1443.5 1205.86L811.374 1333.66C778.459 1340.31 745.543 1322.22 733.461 1290.86L567.702 859.996C554.144 823.045 576.706 782.698 615.252 774.911L615.23 774.89Z" fill="#E0FA15"/>
<path d="M535.103 740.324L1345 576.653C1389.35 567.685 1430.45 602.419 1429.07 647.663L1414.99 1110.08C1414.08 1140 1392.7 1165.37 1363.37 1171.3L731.247 1299.09C698.332 1305.74 665.416 1287.66 653.334 1256.3L487.575 825.43C474.017 788.479 496.579 748.132 535.125 740.345L535.103 740.324Z" stroke="#0A174E" stroke-width="24" stroke-linecap="round" stroke-linejoin="round"/>
<path d="M783.246 838.302L905.694 1169.06" stroke="#0A174E" stroke-width="24" stroke-linecap="round" stroke-linejoin="round"/>
<path d="M1048.76 788.269L1173.72 1080.26" stroke="#0A174E" stroke-width="24" stroke-linecap="round" stroke-linejoin="round"/>
<path d="M1278.05 853.918L715.77 984.605" stroke="#0A174E" stroke-width="24" stroke-linecap="round" stroke-linejoin="round"/>
<path d="M844.48 1134.66L1229.96 1010.24" stroke="#0A174E" stroke-width="24" stroke-linecap="round" stroke-linejoin="round"/>
<path d="M830.163 680.688C830.163 680.688 767.937 638.209 744.194 591.931C720.451 545.654 697.341 507.522 724.204 468.757C751.068 429.992 811.059 350.583 811.059 350.583C811.059 350.583 827.928 324.944 848.55 341.214C869.172 357.484 884.165 388.103 882.92 413.743C881.676 439.382 871.681 480.827 839.188 508.26C839.188 508.26 879.8 531.916 888.55 578.194" stroke="#0A174E" stroke-width="24" stroke-linecap="round" stroke-linejoin="round"/>
<path d="M1093.45 441.872C1093.45 441.872 1120.31 478.147 1117.19 526.915C1114.07 575.683 1099.81 610.101 1126.93 620.715" stroke="#0A174E" stroke-width="24" stroke-linecap="round" stroke-linejoin="round"/>
<path d="M860 352.377C860 352.377 882.267 298.692 929.121 294.936C975.974 291.18 989.09 376.223 988.478 418.744C987.867 461.265 962.479 515.034 924.25 515.667C886.02 516.301 868.73 469.495 868.73 469.495" stroke="#0A174E" stroke-width="24" stroke-linecap="round" stroke-linejoin="round"/>
<path d="M724.204 468.778L601.124 260.56C601.124 260.56 584.255 231.798 588.62 204.28C592.985 176.763 617.993 164.27 643.592 167.393C669.19 170.516 686.692 181.764 716.065 207.403C745.438 233.043 816.456 313.169 827.168 337.204" stroke="#0A174E" stroke-width="24" stroke-linecap="round" stroke-linejoin="round"/>
<path d="M698.583 283.688C698.583 283.688 682.979 323.192 642.367 330.325" stroke="#0A174E" stroke-width="24" stroke-linecap="round" stroke-linejoin="round"/>
<path d="M806.819 307.007L776.055 160.514C776.055 160.514 765.427 104.866 787.294 76.1039C809.16 47.3413 854.137 38.5838 876.636 79.8601C899.135 121.136 946.642 244.733 932.873 294.852" stroke="#0A174E" stroke-width="24" stroke-linecap="round" stroke-linejoin="round"/>
<path d="M460.5 560.953C460.5 560.953 435.197 532.824 440.342 507.015C445.487 481.207 467.058 469.031 487.659 475.594C508.26 482.157 541.071 521.091 541.556 577.35C541.556 577.35 501.787 636.901 439.646 636.901C401.923 636.901 391.611 607.357 392.075 594.232C392.539 581.106 403.314 548.271 460.479 560.932L460.5 560.953Z" fill="#DA27A7"/>
<path d="M851.65 203.035C851.65 203.035 839.293 216.752 787.99 217.406" stroke="#0A174E" stroke-width="24" stroke-linecap="round" stroke-linejoin="round"/>
<path d="M1201.3 93.809C1201.3 93.809 1183.04 41.074 1146.1 29.3411C1109.15 17.6081 1078.07 36.7691 1071.83 68.0851C1065.61 99.4011 1092.41 169.524 1164.67 210.231C1164.67 210.231 1269.83 201.326 1314.13 121.052C1341.04 72.3056 1310.27 37.9298 1293 29.1723C1275.74 20.4148 1225.72 10.9398 1201.3 93.809Z" fill="#DA27A7"/>
<path d="M945.693 1639.14C1007.29 1639.14 1057.22 1589.17 1057.22 1527.53C1057.22 1465.89 1007.29 1415.92 945.693 1415.92C884.099 1415.92 834.168 1465.89 834.168 1527.53C834.168 1589.17 884.099 1639.14 945.693 1639.14Z" fill="#E0FA15" stroke="#0A174E" stroke-width="24" stroke-linecap="round" stroke-linejoin="round"/>
<path d="M978.735 346.152C978.735 346.152 995.351 324.353 1020.34 324.353C1045.33 324.353 1069.7 344.991 1070.94 395.004C1072.19 445.016 1030.33 515.055 999.104 515.688C967.876 516.321 971.418 481.27 971.418 481.27" stroke="#0A174E" stroke-width="24" stroke-linecap="round" stroke-linejoin="round"/>
<path d="M1397.7 1567.24C1459.29 1567.24 1509.22 1517.27 1509.22 1455.63C1509.22 1393.99 1459.29 1344.02 1397.7 1344.02C1336.1 1344.02 1286.17 1393.99 1286.17 1455.63C1286.17 1517.27 1336.1 1567.24 1397.7 1567.24Z" fill="#E0FA15" stroke="#0A174E" stroke-width="24" stroke-linecap="round" stroke-linejoin="round"/>
<path d="M454.912 205.842C454.912 205.842 471.149 256.867 533.627 294.831" stroke="#0A174E" stroke-width="24" stroke-linecap="round" stroke-linejoin="round"/>
<path d="M356.207 372.783C356.207 372.783 438.675 317.136 526.141 366.537" stroke="#0A174E" stroke-width="24" stroke-linecap="round" stroke-linejoin="round"/>
<path d="M488.651 572.243C488.651 572.243 463.347 544.113 468.492 518.305C473.637 492.497 495.208 480.321 515.81 486.884C536.411 493.447 569.221 532.38 569.706 588.639C569.706 588.639 529.937 648.191 467.796 648.191C430.073 648.191 419.762 618.647 420.226 605.521C420.69 592.396 431.465 559.56 488.629 572.222L488.651 572.243Z" stroke="#0A174E" stroke-width="24" stroke-linecap="round" stroke-linejoin="round"/>
<path d="M1214.65 111.725C1214.65 111.725 1196.39 58.99 1159.44 47.2571C1122.5 35.5242 1091.42 54.6851 1085.18 86.0011C1078.96 117.317 1105.76 187.44 1178.02 228.147C1178.02 228.147 1283.18 219.242 1327.48 138.968C1354.39 90.2216 1323.62 55.8458 1306.35 47.0883C1289.08 38.3308 1239.07 28.8558 1214.65 111.725Z" stroke="#0A174E" stroke-width="24" stroke-linecap="round" stroke-linejoin="round"/>
<path d="M945.694 1573.78C971.221 1573.78 991.915 1553.08 991.915 1527.53C991.915 1501.98 971.221 1481.27 945.694 1481.27C920.166 1481.27 899.473 1501.98 899.473 1527.53C899.473 1553.08 920.166 1573.78 945.694 1573.78Z" fill="#F6F5FD" stroke="#0A174E" stroke-width="24" stroke-linecap="round" stroke-linejoin="round"/>
<path d="M1397.7 1501.89C1423.22 1501.89 1443.92 1481.18 1443.92 1455.63C1443.92 1430.09 1423.22 1409.38 1397.7 1409.38C1372.17 1409.38 1351.48 1430.09 1351.48 1455.63C1351.48 1481.18 1372.17 1501.89 1397.7 1501.89Z" fill="#F6F5FD" stroke="#0A174E" stroke-width="24" stroke-linecap="round" stroke-linejoin="round"/>
<path d="M15.0743 597.102C16.0021 643.675 38.8174 679.95 71.3113 678.705C103.805 677.46 262.5 625.252 271.23 620.546C279.959 615.841 293.729 583.976 283.734 558.336C273.739 532.697 258.747 510.497 216.574 519.571C174.402 528.645 14.1465 550.529 15.0743 597.102Z" fill="#0A174E"/>
<path d="M624.551 1455.63L1592.64 1300.45" stroke="#0A174E" stroke-width="24" stroke-linecap="round" stroke-linejoin="round"/>
<path d="M343.238 1525.76L573.774 1442.61" stroke="#0A174E" stroke-width="24" stroke-linecap="round" stroke-linejoin="round"/>
<path d="M432.582 1409.16L535.673 1368.82" stroke="#0A174E" stroke-width="24" stroke-linecap="round" stroke-linejoin="round"/>
<path d="M296.068 1385.7L444.452 1331" stroke="#0A174E" stroke-width="24" stroke-linecap="round" stroke-linejoin="round"/>
<path d="M588.936 1340.54L280.297 594.612" stroke="#0A174E" stroke-width="24" stroke-linecap="round" stroke-linejoin="round"/>
</svg>
